<svg xmlns="http://www.w3.org/2000/svg" width="24" height="24" viewBox="0 0 24 24" fill="none">
  <path fill-rule="evenodd" clip-rule="evenodd" d="M18.5529 7.5068C18.8328 7.20146 18.8121 6.72703 18.5068 6.44714C18.2015 6.16724 17.727 6.18787 17.4471 6.49321L9.75 14.8901L6.55287 11.4023C6.27298 11.097 5.79855 11.0763 5.49321 11.3562C5.18787 11.6361 5.16724 12.1105 5.44714 12.4159L9.19714 16.5068C9.3392 16.6618 9.53977 16.75 9.75 16.75C9.96023 16.75 10.1608 16.6618 10.3029 16.5068L18.5529 7.5068Z" fill="white"/>
  <path fill-rule="evenodd" clip-rule="evenodd" d="M18.5529 7.5068C18.8328 7.20146 18.8121 6.72703 18.5068 6.44714C18.2015 6.16724 17.727 6.18787 17.4471 6.49321L9.75 14.8901L6.55287 11.4023C6.27298 11.097 5.79855 11.0763 5.49321 11.3562C5.18787 11.6361 5.16724 12.1105 5.44714 12.4159L9.19714 16.5068C9.3392 16.6618 9.53977 16.75 9.75 16.75C9.96023 16.75 10.1608 16.6618 10.3029 16.5068L18.5529 7.5068Z" fill="white"/>
</svg>
