<svg width="100" height="31" viewBox="0 0 100 31" fill="none" xmlns="http://www.w3.org/2000/svg">
  <path d="M20.96 11.68H20.84L18.8 15.76L13.36 25.64L8.04 15.8L5.92 11.4H5.8V30H0.0800003V2.08H6.52L13.36 15.16H13.44L20.2 2.08H26.68V30H20.96V11.68ZM48.0534 30C46.9868 30 46.0934 29.6667 45.3734 29C44.6801 28.3333 44.2401 27.44 44.0534 26.32H43.8134C43.4934 27.68 42.7868 28.72 41.6934 29.44C40.6001 30.1333 39.2534 30.48 37.6534 30.48C35.5468 30.48 33.9334 29.92 32.8134 28.8C31.6934 27.68 31.1334 26.2 31.1334 24.36C31.1334 22.1467 31.9334 20.5067 33.5334 19.44C35.1601 18.3467 37.3601 17.8 40.1334 17.8H43.4534V16.48C43.4534 15.4667 43.1868 14.6667 42.6534 14.08C42.1201 13.4667 41.2268 13.16 39.9734 13.16C38.8001 13.16 37.8668 13.4133 37.1734 13.92C36.4801 14.4267 35.9068 15 35.4534 15.64L31.9334 12.52C32.7868 11.2667 33.8534 10.2933 35.1334 9.6C36.4401 8.88 38.2001 8.52 40.4134 8.52C43.4001 8.52 45.6401 9.17333 47.1334 10.48C48.6268 11.7867 49.3734 13.6933 49.3734 16.2V25.4H51.3334V30H48.0534ZM39.8534 26.36C40.8401 26.36 41.6801 26.1467 42.3734 25.72C43.0934 25.2933 43.4534 24.6 43.4534 23.64V21.16H40.5734C38.2534 21.16 37.0934 21.9467 37.0934 23.52V24.12C37.0934 24.8933 37.3334 25.4667 37.8134 25.84C38.2934 26.1867 38.9734 26.36 39.8534 26.36ZM56.3469 13.6H53.3869V9H56.3469V6.52C56.3469 4.49333 56.8802 2.97333 57.9469 1.96C59.0135 0.919999 60.5735 0.4 62.6269 0.4H66.4669V5H62.2669V9H75.6669V30H69.7469V13.6H62.2669V30H56.3469V13.6ZM72.7069 6.76C71.5069 6.76 70.6269 6.49333 70.0669 5.96C69.5335 5.4 69.2669 4.69333 69.2669 3.84V2.96C69.2669 2.10667 69.5335 1.41333 70.0669 0.879998C70.6269 0.319999 71.5069 0.0399995 72.7069 0.0399995C73.9069 0.0399995 74.7735 0.319999 75.3069 0.879998C75.8669 1.41333 76.1469 2.10667 76.1469 2.96V3.84C76.1469 4.69333 75.8669 5.4 75.3069 5.96C74.7735 6.49333 73.9069 6.76 72.7069 6.76ZM96.7253 30C95.6586 30 94.7653 29.6667 94.0453 29C93.352 28.3333 92.912 27.44 92.7253 26.32H92.4853C92.1653 27.68 91.4586 28.72 90.3653 29.44C89.272 30.1333 87.9253 30.48 86.3253 30.48C84.2186 30.48 82.6053 29.92 81.4853 28.8C80.3653 27.68 79.8053 26.2 79.8053 24.36C79.8053 22.1467 80.6053 20.5067 82.2053 19.44C83.832 18.3467 86.032 17.8 88.8053 17.8H92.1253V16.48C92.1253 15.4667 91.8586 14.6667 91.3253 14.08C90.792 13.4667 89.8986 13.16 88.6453 13.16C87.472 13.16 86.5386 13.4133 85.8453 13.92C85.152 14.4267 84.5786 15 84.1253 15.64L80.6053 12.52C81.4586 11.2667 82.5253 10.2933 83.8053 9.6C85.112 8.88 86.872 8.52 89.0853 8.52C92.072 8.52 94.312 9.17333 95.8053 10.48C97.2986 11.7867 98.0453 13.6933 98.0453 16.2V25.4H100.005V30H96.7253ZM88.5253 26.36C89.512 26.36 90.352 26.1467 91.0453 25.72C91.7653 25.2933 92.1253 24.6 92.1253 23.64V21.16H89.2453C86.9253 21.16 85.7653 21.9467 85.7653 23.52V24.12C85.7653 24.8933 86.0053 25.4667 86.4853 25.84C86.9653 26.1867 87.6453 26.36 88.5253 26.36Z" fill="#EB5757"/>
</svg>
