<svg width="16" height="16" viewBox="0 0 16 16" fill="none" xmlns="http://www.w3.org/2000/svg">
  <path fill-rule="evenodd" clip-rule="evenodd" d="M8 1.83337C6.43519 1.83337 5.16667 3.1019 5.16667 4.66671C5.16667 6.23151 6.43519 7.50004 8 7.50004C9.56481 7.50004 10.8333 6.23151 10.8333 4.66671C10.8333 3.1019 9.56481 1.83337 8 1.83337ZM4.16667 4.66671C4.16667 2.54962 5.88291 0.833374 8 0.833374C10.1171 0.833374 11.8333 2.54962 11.8333 4.66671C11.8333 6.7838 10.1171 8.50004 8 8.50004C5.88291 8.50004 4.16667 6.7838 4.16667 4.66671Z" fill="#8099B3"/>
  <path fill-rule="evenodd" clip-rule="evenodd" d="M1.77344 14.6667C1.77344 11.7195 4.66485 9.50004 8.0001 9.50004C11.3354 9.50004 14.2268 11.7195 14.2268 14.6667C14.2268 14.9429 14.0029 15.1667 13.7268 15.1667C13.4506 15.1667 13.2268 14.9429 13.2268 14.6667C13.2268 12.4539 10.9849 10.5 8.0001 10.5C5.01535 10.5 2.77344 12.4539 2.77344 14.6667C2.77344 14.9429 2.54958 15.1667 2.27344 15.1667C1.9973 15.1667 1.77344 14.9429 1.77344 14.6667Z" fill="#8099B3"/>
</svg>
